<svg xmlns="http://www.w3.org/2000/svg" viewBox="0 0 128 128" fill="none">
  <defs>
    <linearGradient id="bg" x1="18" y1="12" x2="108" y2="116" gradientUnits="userSpaceOnUse">
      <stop stop-color="#111936"/>
      <stop offset="1" stop-color="#0B1020"/>
    </linearGradient>
    <linearGradient id="violet" x1="30" y1="24" x2="96" y2="102" gradientUnits="userSpaceOnUse">
      <stop stop-color="#A78BFA"/>
      <stop offset="0.45" stop-color="#8B5CF6"/>
      <stop offset="1" stop-color="#6D28D9"/>
    </linearGradient>
    <linearGradient id="gold" x1="30" y1="24" x2="96" y2="102" gradientUnits="userSpaceOnUse">
      <stop stop-color="#F8EFD2"/>
      <stop offset="0.45" stop-color="#F3D27A"/>
      <stop offset="1" stop-color="#D4AF37"/>
    </linearGradient>
    <radialGradient id="violetGlow" cx="0" cy="0" r="1" gradientUnits="userSpaceOnUse" gradientTransform="translate(64 64) rotate(90) scale(34)">
      <stop stop-color="#8B5CF6" stop-opacity="0.9"/>
      <stop offset="1" stop-color="#8B5CF6" stop-opacity="0"/>
    </radialGradient>
    <filter id="glow" x="-40%" y="-40%" width="180%" height="180%">
      <feGaussianBlur stdDeviation="3" result="blur"/>
      <feMerge>
        <feMergeNode in="blur"/>
        <feMergeNode in="SourceGraphic"/>
      </feMerge>
    </filter>
  </defs>
  <rect x="8" y="8" width="112" height="112" rx="28" fill="url(#bg)"/>
  <rect x="10" y="10" width="108" height="108" rx="26" stroke="#8B5CF6" stroke-opacity="0.35" stroke-width="2"/>
  <circle cx="64" cy="64" r="42" fill="url(#violetGlow)"/>
  <circle cx="64" cy="64" r="34" stroke="url(#violet)" stroke-width="4"/>
  <circle cx="64" cy="64" r="22" stroke="#A78BFA" stroke-opacity="0.42" stroke-width="2"/>
  <path d="M64 28V100M28 64H100M39 39L89 89M89 39L39 89" stroke="url(#violet)" stroke-opacity="0.9" stroke-width="2.8" stroke-linecap="round"/>
  <circle cx="64" cy="64" r="10" fill="url(#violet)" filter="url(#glow)"/>
  <circle cx="64" cy="64" r="4" fill="#EDE9FE"/>
  <circle cx="64" cy="34" r="4" fill="#A78BFA"/>
  <circle cx="94" cy="64" r="4" fill="#A78BFA"/>
  <circle cx="64" cy="94" r="4" fill="#A78BFA"/>
  <circle cx="34" cy="64" r="4" fill="#A78BFA"/>
</svg>
